<svg xmlns="http://www.w3.org/2000/svg" viewBox="0 0 512 512" role="img" aria-label="Violette">
  <rect width="512" height="512" rx="96" fill="#2d8630"/>
  <g fill="#e8f7e8">
    <path d="M256 104c-66 0-120 54-120 120 0 48 28 89 68 108-1 3-2 8-2 12v52c0 10 8 18 18 18h72c10 0 18-8 18-18v-52c0-4-1-9-2-12 40-19 68-60 68-108 0-66-54-120-120-120z"/>
    <path fill="#2d8630" d="M222 222c-6-14-22-22-36-22s-22 10-22 22c10 16 30 28 58 28z"/>
    <path fill="#2d8630" d="M290 222c6-14 22-22 36-22s22 10 22 22c-10 16-30 28-58 28z"/>
  </g>
</svg>
